# xmcd
#
# Track frame offsets: 
#        150
#        12218
#        22748
#        40397
#        57798
#        81130
#        104813
#        125824
#        138755
#        159116
#        180152
#        197566
#
# Disc length: 2836 seconds
#
# Revision: 0
# Processed by: cddbd v1.5.2PL0 Copyright (c) Steve Scherf et al.
# Submitted via: ExactAudioCopy v0.95b4
#
DISCID=8d0b120c
DTITLE=Marc Broussard - S.O.S.: Save Our Soul
DYEAR=2007
DGENRE=Soul
TTITLE0=You Met Your Match
TTITLE1=If I Could Build My Whole World Around You
TTITLE2=Happy Hippie
TTITLE3=Let The Music Get Down In Your Soul
TTITLE4=I Love You More Than You'll Ever Know
TTITLE5=Inner City Blues (Make Me Wanna Holler)
TTITLE6=Love And Happiness
TTITLE7=I've Been Loving You Too Long
TTITLE8=Respect Yourself
TTITLE9=Yes We Can, Can
TTITLE10=Come In From The Cold
TTITLE11=Bring It On Home To Me
EXTD=
EXTT0=
EXTT1=
EXTT2=
EXTT3=
EXTT4=
EXTT5=
EXTT6=
EXTT7=
EXTT8=
EXTT9=
EXTT10=
EXTT11=
PLAYORDER=
